<mxfile host="app.diagrams.net" modified="2023-02-07T18:37:48.060Z" agent="5.0 (Macintosh; Intel Mac OS X 10_15_7) AppleWebKit/605.1.15 (KHTML, like Gecko) Version/16.1 Safari/605.1.15" etag="nBrtiC7axYofzEsf3OxV" version="20.8.17" type="github">
  <diagram name="第 1 页" id="NSw5QEyYG3UXHzCKbpZL">
    <mxGraphModel dx="1850" dy="572" grid="1" gridSize="10" guides="1" tooltips="1" connect="1" arrows="1" fold="1" page="1" pageScale="1" pageWidth="827" pageHeight="1169" math="0" shadow="0">
      <root>
        <mxCell id="0" />
        <mxCell id="1" parent="0" />
        <mxCell id="O5p-tDyvPr6uDyV5TNFG-1" value="项目成员管理" style="shape=folder;fontStyle=1;tabWidth=110;tabHeight=30;tabPosition=left;html=1;boundedLbl=1;labelInHeader=1;container=1;collapsible=0;recursiveResize=0;" vertex="1" parent="1">
          <mxGeometry x="-20" y="260" width="500" height="280" as="geometry" />
        </mxCell>
        <mxCell id="O5p-tDyvPr6uDyV5TNFG-2" value="&lt;div style=&quot;color: rgb(240, 240, 240);&quot;&gt;- 开发人员&lt;br&gt;- 产品经理&lt;/div&gt;" style="shape=note;whiteSpace=wrap;html=1;backgroundOutline=1;darkOpacity=0.05;strokeColor=#3A5431;fontFamily=Helvetica;fontSize=12;fontColor=#ffffff;startSize=26;fillColor=#6d8764;align=left;" vertex="1" parent="O5p-tDyvPr6uDyV5TNFG-1">
          <mxGeometry x="294" y="170" width="164" height="88" as="geometry" />
        </mxCell>
        <mxCell id="O5p-tDyvPr6uDyV5TNFG-3" value="项目成员" style="swimlane;fontStyle=0;childLayout=stackLayout;horizontal=1;startSize=26;fillColor=#a0522d;horizontalStack=0;resizeParent=1;resizeParentMax=0;resizeLast=0;collapsible=1;marginBottom=0;strokeColor=#E0733F;fontColor=#ffffff;" vertex="1" parent="O5p-tDyvPr6uDyV5TNFG-1">
          <mxGeometry x="294" y="50" width="140" height="92" as="geometry">
            <mxRectangle x="30" y="481" width="100" height="30" as="alternateBounds" />
          </mxGeometry>
        </mxCell>
        <mxCell id="O5p-tDyvPr6uDyV5TNFG-4" value="" style="endArrow=none;dashed=1;html=1;rounded=0;exitX=0.5;exitY=1;exitDx=0;exitDy=0;entryX=0;entryY=0;entryDx=67;entryDy=0;entryPerimeter=0;" edge="1" parent="O5p-tDyvPr6uDyV5TNFG-1" source="O5p-tDyvPr6uDyV5TNFG-3" target="O5p-tDyvPr6uDyV5TNFG-2">
          <mxGeometry width="50" height="50" relative="1" as="geometry">
            <mxPoint x="620" y="-320" as="sourcePoint" />
            <mxPoint x="670" y="-370" as="targetPoint" />
          </mxGeometry>
        </mxCell>
        <mxCell id="O5p-tDyvPr6uDyV5TNFG-5" value="敏捷团队" style="swimlane;fontStyle=0;childLayout=stackLayout;horizontal=1;startSize=26;fillColor=#a0522d;horizontalStack=0;resizeParent=1;resizeParentMax=0;resizeLast=0;collapsible=1;marginBottom=0;strokeColor=#E0733F;fontColor=#ffffff;" vertex="1" parent="O5p-tDyvPr6uDyV5TNFG-1">
          <mxGeometry x="50" y="70" width="140" height="52" as="geometry">
            <mxRectangle x="30" y="481" width="100" height="30" as="alternateBounds" />
          </mxGeometry>
        </mxCell>
        <mxCell id="O5p-tDyvPr6uDyV5TNFG-6" value="" style="endArrow=none;html=1;edgeStyle=orthogonalEdgeStyle;rounded=0;exitX=1;exitY=0.5;exitDx=0;exitDy=0;entryX=0;entryY=0.5;entryDx=0;entryDy=0;" edge="1" parent="O5p-tDyvPr6uDyV5TNFG-1" source="O5p-tDyvPr6uDyV5TNFG-5" target="O5p-tDyvPr6uDyV5TNFG-3">
          <mxGeometry relative="1" as="geometry">
            <mxPoint x="140" y="220" as="sourcePoint" />
            <mxPoint x="300" y="90" as="targetPoint" />
          </mxGeometry>
        </mxCell>
        <mxCell id="O5p-tDyvPr6uDyV5TNFG-7" value="1" style="edgeLabel;resizable=0;html=1;align=left;verticalAlign=bottom;" connectable="0" vertex="1" parent="O5p-tDyvPr6uDyV5TNFG-6">
          <mxGeometry x="-1" relative="1" as="geometry" />
        </mxCell>
        <mxCell id="O5p-tDyvPr6uDyV5TNFG-8" value="*" style="edgeLabel;resizable=0;html=1;align=right;verticalAlign=bottom;" connectable="0" vertex="1" parent="O5p-tDyvPr6uDyV5TNFG-6">
          <mxGeometry x="1" relative="1" as="geometry" />
        </mxCell>
        <mxCell id="O5p-tDyvPr6uDyV5TNFG-9" value="产品管理" style="shape=folder;fontStyle=1;tabWidth=110;tabHeight=30;tabPosition=left;html=1;boundedLbl=1;labelInHeader=1;container=1;collapsible=0;recursiveResize=0;" vertex="1" parent="1">
          <mxGeometry x="520" y="280" width="420" height="520" as="geometry" />
        </mxCell>
        <mxCell id="O5p-tDyvPr6uDyV5TNFG-10" value="&lt;div style=&quot;color: rgb(240, 240, 240);&quot;&gt;{&lt;/div&gt;&lt;div style=&quot;color: rgb(240, 240, 240);&quot;&gt;-&amp;nbsp;&lt;span style=&quot;background-color: initial;&quot;&gt;每个用户故事有TODO、DOING、DONE 三种状态&lt;/span&gt;&lt;/div&gt;&lt;div style=&quot;color: rgb(240, 240, 240);&quot;&gt;&lt;span style=&quot;background-color: initial;&quot;&gt;- 故事点只能有开发&lt;/span&gt;&lt;/div&gt;&lt;span style=&quot;color: rgb(240, 240, 240);&quot;&gt;- 状态只能由开发人员切换&lt;br&gt;- 优先级只能由产品经理调整&lt;br&gt;&lt;/span&gt;&lt;div style=&quot;color: rgb(240, 240, 240);&quot;&gt;}&lt;/div&gt;" style="shape=note;whiteSpace=wrap;html=1;backgroundOutline=1;darkOpacity=0.05;strokeColor=#3A5431;fontFamily=Helvetica;fontSize=12;fontColor=#ffffff;startSize=26;fillColor=#6d8764;align=left;" vertex="1" parent="O5p-tDyvPr6uDyV5TNFG-9">
          <mxGeometry x="220" y="390" width="180" height="108" as="geometry" />
        </mxCell>
        <mxCell id="O5p-tDyvPr6uDyV5TNFG-11" value="产品待办清单" style="swimlane;fontStyle=0;childLayout=stackLayout;horizontal=1;startSize=26;fillColor=#a0522d;horizontalStack=0;resizeParent=1;resizeParentMax=0;resizeLast=0;collapsible=1;marginBottom=0;strokeColor=#E0733F;fontColor=#ffffff;" vertex="1" parent="O5p-tDyvPr6uDyV5TNFG-9">
          <mxGeometry x="10" y="128" width="140" height="52" as="geometry">
            <mxRectangle x="30" y="481" width="100" height="30" as="alternateBounds" />
          </mxGeometry>
        </mxCell>
        <mxCell id="O5p-tDyvPr6uDyV5TNFG-12" value="用户故事" style="swimlane;fontStyle=0;childLayout=stackLayout;horizontal=1;startSize=26;fillColor=#a0522d;horizontalStack=0;resizeParent=1;resizeParentMax=0;resizeLast=0;collapsible=1;marginBottom=0;strokeColor=#E0733F;fontColor=#ffffff;" vertex="1" parent="O5p-tDyvPr6uDyV5TNFG-9">
          <mxGeometry x="10" y="253" width="140" height="104" as="geometry">
            <mxRectangle x="30" y="481" width="100" height="30" as="alternateBounds" />
          </mxGeometry>
        </mxCell>
        <mxCell id="O5p-tDyvPr6uDyV5TNFG-13" value="故事点" style="text;strokeColor=none;fillColor=none;align=left;verticalAlign=top;spacingLeft=4;spacingRight=4;overflow=hidden;rotatable=0;points=[[0,0.5],[1,0.5]];portConstraint=eastwest;" vertex="1" parent="O5p-tDyvPr6uDyV5TNFG-12">
          <mxGeometry y="26" width="140" height="26" as="geometry" />
        </mxCell>
        <mxCell id="O5p-tDyvPr6uDyV5TNFG-14" value="状态" style="text;strokeColor=none;fillColor=none;align=left;verticalAlign=top;spacingLeft=4;spacingRight=4;overflow=hidden;rotatable=0;points=[[0,0.5],[1,0.5]];portConstraint=eastwest;" vertex="1" parent="O5p-tDyvPr6uDyV5TNFG-12">
          <mxGeometry y="52" width="140" height="26" as="geometry" />
        </mxCell>
        <mxCell id="O5p-tDyvPr6uDyV5TNFG-15" value="优先级" style="text;strokeColor=none;fillColor=none;align=left;verticalAlign=top;spacingLeft=4;spacingRight=4;overflow=hidden;rotatable=0;points=[[0,0.5],[1,0.5]];portConstraint=eastwest;" vertex="1" parent="O5p-tDyvPr6uDyV5TNFG-12">
          <mxGeometry y="78" width="140" height="26" as="geometry" />
        </mxCell>
        <mxCell id="O5p-tDyvPr6uDyV5TNFG-16" value="" style="endArrow=none;dashed=1;html=1;dashPattern=1 3;strokeWidth=2;rounded=0;fontFamily=Helvetica;fontSize=12;fontColor=#ffffff;startSize=26;exitX=1;exitY=0.096;exitDx=0;exitDy=0;exitPerimeter=0;entryX=0;entryY=0;entryDx=0;entryDy=0;entryPerimeter=0;" edge="1" parent="O5p-tDyvPr6uDyV5TNFG-9" source="O5p-tDyvPr6uDyV5TNFG-15" target="O5p-tDyvPr6uDyV5TNFG-10">
          <mxGeometry width="50" height="50" relative="1" as="geometry">
            <mxPoint x="-330" y="410" as="sourcePoint" />
            <mxPoint x="-280" y="360" as="targetPoint" />
          </mxGeometry>
        </mxCell>
        <mxCell id="O5p-tDyvPr6uDyV5TNFG-17" value="验收条件" style="swimlane;fontStyle=0;childLayout=stackLayout;horizontal=1;startSize=26;fillColor=#a0522d;horizontalStack=0;resizeParent=1;resizeParentMax=0;resizeLast=0;collapsible=1;marginBottom=0;strokeColor=#E0733F;fontColor=#ffffff;" vertex="1" parent="O5p-tDyvPr6uDyV5TNFG-9">
          <mxGeometry x="220" y="201" width="140" height="49" as="geometry">
            <mxRectangle x="30" y="481" width="100" height="30" as="alternateBounds" />
          </mxGeometry>
        </mxCell>
        <mxCell id="O5p-tDyvPr6uDyV5TNFG-18" value="" style="endArrow=none;html=1;rounded=0;exitX=1;exitY=0.5;exitDx=0;exitDy=0;entryX=0;entryY=0.5;entryDx=0;entryDy=0;" edge="1" parent="O5p-tDyvPr6uDyV5TNFG-9" source="O5p-tDyvPr6uDyV5TNFG-13" target="O5p-tDyvPr6uDyV5TNFG-17">
          <mxGeometry relative="1" as="geometry">
            <mxPoint x="180" y="300" as="sourcePoint" />
            <mxPoint x="340" y="300" as="targetPoint" />
          </mxGeometry>
        </mxCell>
        <mxCell id="O5p-tDyvPr6uDyV5TNFG-19" value="1" style="edgeLabel;resizable=0;html=1;align=left;verticalAlign=bottom;" connectable="0" vertex="1" parent="O5p-tDyvPr6uDyV5TNFG-18">
          <mxGeometry x="-1" relative="1" as="geometry">
            <mxPoint x="10" y="13" as="offset" />
          </mxGeometry>
        </mxCell>
        <mxCell id="O5p-tDyvPr6uDyV5TNFG-20" value="*" style="edgeLabel;resizable=0;html=1;align=right;verticalAlign=bottom;" connectable="0" vertex="1" parent="O5p-tDyvPr6uDyV5TNFG-18">
          <mxGeometry x="1" relative="1" as="geometry" />
        </mxCell>
        <mxCell id="O5p-tDyvPr6uDyV5TNFG-21" value="" style="endArrow=none;html=1;edgeStyle=orthogonalEdgeStyle;rounded=0;exitX=0.5;exitY=1;exitDx=0;exitDy=0;" edge="1" parent="O5p-tDyvPr6uDyV5TNFG-9" source="O5p-tDyvPr6uDyV5TNFG-11" target="O5p-tDyvPr6uDyV5TNFG-12">
          <mxGeometry relative="1" as="geometry">
            <mxPoint x="230" y="130" as="sourcePoint" />
            <mxPoint x="390" y="130" as="targetPoint" />
          </mxGeometry>
        </mxCell>
        <mxCell id="O5p-tDyvPr6uDyV5TNFG-22" value="1" style="edgeLabel;resizable=0;html=1;align=left;verticalAlign=bottom;" connectable="0" vertex="1" parent="O5p-tDyvPr6uDyV5TNFG-21">
          <mxGeometry x="-1" relative="1" as="geometry">
            <mxPoint x="-20" y="20" as="offset" />
          </mxGeometry>
        </mxCell>
        <mxCell id="O5p-tDyvPr6uDyV5TNFG-23" value="*" style="edgeLabel;resizable=0;html=1;align=right;verticalAlign=bottom;" connectable="0" vertex="1" parent="O5p-tDyvPr6uDyV5TNFG-21">
          <mxGeometry x="1" relative="1" as="geometry">
            <mxPoint x="-10" as="offset" />
          </mxGeometry>
        </mxCell>
        <mxCell id="O5p-tDyvPr6uDyV5TNFG-24" value="迭代管理" style="shape=folder;fontStyle=1;tabWidth=110;tabHeight=30;tabPosition=left;html=1;boundedLbl=1;labelInHeader=1;container=1;collapsible=0;recursiveResize=0;" vertex="1" parent="1">
          <mxGeometry x="-20" y="560" width="500" height="240" as="geometry" />
        </mxCell>
        <mxCell id="O5p-tDyvPr6uDyV5TNFG-25" value="迭代" style="swimlane;fontStyle=0;childLayout=stackLayout;horizontal=1;startSize=26;fillColor=#a0522d;horizontalStack=0;resizeParent=1;resizeParentMax=0;resizeLast=0;collapsible=1;marginBottom=0;strokeColor=#E0733F;fontColor=#ffffff;" vertex="1" parent="O5p-tDyvPr6uDyV5TNFG-24">
          <mxGeometry x="210" y="66" width="140" height="56" as="geometry">
            <mxRectangle x="30" y="481" width="100" height="30" as="alternateBounds" />
          </mxGeometry>
        </mxCell>
        <mxCell id="O5p-tDyvPr6uDyV5TNFG-27" value="&lt;div style=&quot;color: rgb(240, 240, 240); text-align: left;&quot;&gt;{&lt;/div&gt;&lt;div style=&quot;color: rgb(240, 240, 240); text-align: left;&quot;&gt;- 迭代待办清单所有故事点的和不能超过迭代容量&lt;/div&gt;&lt;div style=&quot;color: rgb(240, 240, 240); text-align: left;&quot;&gt;}&lt;/div&gt;" style="shape=note;whiteSpace=wrap;html=1;backgroundOutline=1;darkOpacity=0.05;strokeColor=#3A5431;fontFamily=Helvetica;fontSize=12;fontColor=#ffffff;startSize=26;fillColor=#6d8764;" vertex="1" parent="O5p-tDyvPr6uDyV5TNFG-24">
          <mxGeometry x="10" y="44" width="150" height="100" as="geometry" />
        </mxCell>
        <mxCell id="O5p-tDyvPr6uDyV5TNFG-29" value="" style="endArrow=none;dashed=1;html=1;dashPattern=1 3;strokeWidth=2;rounded=0;fontFamily=Helvetica;fontSize=12;fontColor=#ffffff;startSize=26;exitX=1.027;exitY=0.56;exitDx=0;exitDy=0;exitPerimeter=0;entryX=0;entryY=0.5;entryDx=0;entryDy=0;" edge="1" parent="O5p-tDyvPr6uDyV5TNFG-24" source="O5p-tDyvPr6uDyV5TNFG-27" target="O5p-tDyvPr6uDyV5TNFG-25">
          <mxGeometry width="50" height="50" relative="1" as="geometry">
            <mxPoint x="200" y="120" as="sourcePoint" />
            <mxPoint x="250" y="70" as="targetPoint" />
          </mxGeometry>
        </mxCell>
        <mxCell id="O5p-tDyvPr6uDyV5TNFG-33" value="" style="endArrow=none;html=1;rounded=0;exitX=0;exitY=0.5;exitDx=0;exitDy=0;entryX=1;entryY=0.5;entryDx=0;entryDy=0;" edge="1" parent="1" source="O5p-tDyvPr6uDyV5TNFG-14" target="O5p-tDyvPr6uDyV5TNFG-25">
          <mxGeometry relative="1" as="geometry">
            <mxPoint x="630" y="302" as="sourcePoint" />
            <mxPoint x="630" y="370" as="targetPoint" />
          </mxGeometry>
        </mxCell>
        <mxCell id="O5p-tDyvPr6uDyV5TNFG-34" value="*" style="edgeLabel;resizable=0;html=1;align=left;verticalAlign=bottom;strokeColor=#E0733F;fillColor=#FFFFFF;" connectable="0" vertex="1" parent="O5p-tDyvPr6uDyV5TNFG-33">
          <mxGeometry x="-1" relative="1" as="geometry">
            <mxPoint x="-20" y="18" as="offset" />
          </mxGeometry>
        </mxCell>
        <mxCell id="O5p-tDyvPr6uDyV5TNFG-35" value="1" style="edgeLabel;html=1;align=center;verticalAlign=middle;resizable=0;points=[];" connectable="0" vertex="1" parent="O5p-tDyvPr6uDyV5TNFG-33">
          <mxGeometry x="0.8702" relative="1" as="geometry">
            <mxPoint as="offset" />
          </mxGeometry>
        </mxCell>
        <mxCell id="O5p-tDyvPr6uDyV5TNFG-36" value="软件产品" style="swimlane;fontStyle=0;childLayout=stackLayout;horizontal=1;startSize=26;fillColor=#a0522d;horizontalStack=0;resizeParent=1;resizeParentMax=0;resizeLast=0;collapsible=1;marginBottom=0;strokeColor=#E0733F;fontColor=#ffffff;movable=1;resizable=1;rotatable=1;deletable=1;editable=1;connectable=1;" vertex="1" parent="1">
          <mxGeometry x="530" y="320" width="140" height="52" as="geometry">
            <mxRectangle x="30" y="481" width="100" height="30" as="alternateBounds" />
          </mxGeometry>
        </mxCell>
        <mxCell id="O5p-tDyvPr6uDyV5TNFG-37" value="产品名称" style="text;strokeColor=none;fillColor=none;align=left;verticalAlign=top;spacingLeft=4;spacingRight=4;overflow=hidden;rotatable=0;points=[[0,0.5],[1,0.5]];portConstraint=eastwest;movable=0;resizable=0;deletable=0;editable=0;connectable=0;" vertex="1" parent="O5p-tDyvPr6uDyV5TNFG-36">
          <mxGeometry y="26" width="140" height="26" as="geometry" />
        </mxCell>
        <mxCell id="O5p-tDyvPr6uDyV5TNFG-38" value="" style="endArrow=none;html=1;rounded=0;exitX=0;exitY=0.25;exitDx=0;exitDy=0;entryX=1;entryY=0.75;entryDx=0;entryDy=0;" edge="1" parent="1" source="O5p-tDyvPr6uDyV5TNFG-12" target="O5p-tDyvPr6uDyV5TNFG-3">
          <mxGeometry relative="1" as="geometry">
            <mxPoint x="700" y="640" as="sourcePoint" />
            <mxPoint x="860" y="640" as="targetPoint" />
          </mxGeometry>
        </mxCell>
        <mxCell id="O5p-tDyvPr6uDyV5TNFG-39" value="*" style="edgeLabel;resizable=0;html=1;align=left;verticalAlign=bottom;" connectable="0" vertex="1" parent="O5p-tDyvPr6uDyV5TNFG-38">
          <mxGeometry x="-1" relative="1" as="geometry">
            <mxPoint x="-14" y="11" as="offset" />
          </mxGeometry>
        </mxCell>
        <mxCell id="O5p-tDyvPr6uDyV5TNFG-40" value="1" style="edgeLabel;resizable=0;html=1;align=right;verticalAlign=bottom;" connectable="0" vertex="1" parent="O5p-tDyvPr6uDyV5TNFG-38">
          <mxGeometry x="1" relative="1" as="geometry" />
        </mxCell>
        <mxCell id="O5p-tDyvPr6uDyV5TNFG-41" value="开发人员" style="edgeLabel;html=1;align=center;verticalAlign=middle;resizable=0;points=[];" connectable="0" vertex="1" parent="O5p-tDyvPr6uDyV5TNFG-38">
          <mxGeometry x="0.6853" y="4" relative="1" as="geometry">
            <mxPoint x="-12" y="-12" as="offset" />
          </mxGeometry>
        </mxCell>
        <mxCell id="O5p-tDyvPr6uDyV5TNFG-42" value="" style="endArrow=none;html=1;rounded=0;entryX=0.993;entryY=0.185;entryDx=0;entryDy=0;exitX=0.25;exitY=0;exitDx=0;exitDy=0;entryPerimeter=0;" edge="1" parent="1" source="O5p-tDyvPr6uDyV5TNFG-12" target="O5p-tDyvPr6uDyV5TNFG-3">
          <mxGeometry relative="1" as="geometry">
            <mxPoint x="580" y="600" as="sourcePoint" />
            <mxPoint x="810" y="634" as="targetPoint" />
          </mxGeometry>
        </mxCell>
        <mxCell id="O5p-tDyvPr6uDyV5TNFG-43" value="*" style="edgeLabel;resizable=0;html=1;align=left;verticalAlign=bottom;" connectable="0" vertex="1" parent="O5p-tDyvPr6uDyV5TNFG-42">
          <mxGeometry x="-1" relative="1" as="geometry" />
        </mxCell>
        <mxCell id="O5p-tDyvPr6uDyV5TNFG-44" value="1" style="edgeLabel;resizable=0;html=1;align=right;verticalAlign=bottom;" connectable="0" vertex="1" parent="O5p-tDyvPr6uDyV5TNFG-42">
          <mxGeometry x="1" relative="1" as="geometry" />
        </mxCell>
        <mxCell id="O5p-tDyvPr6uDyV5TNFG-45" value="产品经理" style="edgeLabel;html=1;align=center;verticalAlign=middle;resizable=0;points=[];" connectable="0" vertex="1" parent="O5p-tDyvPr6uDyV5TNFG-42">
          <mxGeometry x="0.6853" y="4" relative="1" as="geometry">
            <mxPoint x="-12" y="-12" as="offset" />
          </mxGeometry>
        </mxCell>
        <mxCell id="O5p-tDyvPr6uDyV5TNFG-46" value="" style="endArrow=none;html=1;rounded=0;exitX=0.5;exitY=1;exitDx=0;exitDy=0;entryX=0.25;entryY=0;entryDx=0;entryDy=0;" edge="1" parent="1" source="O5p-tDyvPr6uDyV5TNFG-5" target="O5p-tDyvPr6uDyV5TNFG-25">
          <mxGeometry relative="1" as="geometry">
            <mxPoint x="160" y="450" as="sourcePoint" />
            <mxPoint x="300" y="604" as="targetPoint" />
          </mxGeometry>
        </mxCell>
        <mxCell id="O5p-tDyvPr6uDyV5TNFG-47" value="1" style="edgeLabel;resizable=0;html=1;align=left;verticalAlign=bottom;" connectable="0" vertex="1" parent="O5p-tDyvPr6uDyV5TNFG-46">
          <mxGeometry x="-1" relative="1" as="geometry">
            <mxPoint x="-10" y="28" as="offset" />
          </mxGeometry>
        </mxCell>
        <mxCell id="O5p-tDyvPr6uDyV5TNFG-48" value="*" style="edgeLabel;resizable=0;html=1;align=right;verticalAlign=bottom;" connectable="0" vertex="1" parent="O5p-tDyvPr6uDyV5TNFG-46">
          <mxGeometry x="1" relative="1" as="geometry">
            <mxPoint x="-15" y="-4" as="offset" />
          </mxGeometry>
        </mxCell>
        <mxCell id="O5p-tDyvPr6uDyV5TNFG-49" value="" style="endArrow=none;html=1;edgeStyle=orthogonalEdgeStyle;rounded=0;exitX=0.5;exitY=1;exitDx=0;exitDy=0;entryX=0.5;entryY=0;entryDx=0;entryDy=0;" edge="1" parent="1" source="O5p-tDyvPr6uDyV5TNFG-36" target="O5p-tDyvPr6uDyV5TNFG-11">
          <mxGeometry relative="1" as="geometry">
            <mxPoint x="720" y="370" as="sourcePoint" />
            <mxPoint x="880" y="370" as="targetPoint" />
          </mxGeometry>
        </mxCell>
        <mxCell id="O5p-tDyvPr6uDyV5TNFG-50" value="1" style="edgeLabel;resizable=0;html=1;align=left;verticalAlign=bottom;" connectable="0" vertex="1" parent="O5p-tDyvPr6uDyV5TNFG-49">
          <mxGeometry x="-1" relative="1" as="geometry">
            <mxPoint x="-20" y="18" as="offset" />
          </mxGeometry>
        </mxCell>
        <mxCell id="O5p-tDyvPr6uDyV5TNFG-51" value="1" style="edgeLabel;resizable=0;html=1;align=right;verticalAlign=bottom;" connectable="0" vertex="1" parent="O5p-tDyvPr6uDyV5TNFG-49">
          <mxGeometry x="1" relative="1" as="geometry">
            <mxPoint x="-10" as="offset" />
          </mxGeometry>
        </mxCell>
        <mxCell id="O5p-tDyvPr6uDyV5TNFG-52" value="Text" style="text;strokeColor=none;align=center;fillColor=none;html=1;verticalAlign=middle;whiteSpace=wrap;rounded=0;" vertex="1" parent="1">
          <mxGeometry x="220" y="440" width="60" height="30" as="geometry" />
        </mxCell>
      </root>
    </mxGraphModel>
  </diagram>
</mxfile>
